<?xml version="1.0" encoding="UTF-8"?>
<!DOCTYPE svg PUBLIC "-//W3C//DTD SVG 1.1//EN" "http://www.w3.org/Graphics/SVG/1.1/DTD/svg11.dtd">
<!-- Creator: CorelDRAW 2021 (64-Bit) -->
<svg xmlns="http://www.w3.org/2000/svg" xml:space="preserve" width="210mm" height="297mm" version="1.1" style="shape-rendering:geometricPrecision; text-rendering:geometricPrecision; image-rendering:optimizeQuality; fill-rule:evenodd; clip-rule:evenodd"
viewBox="0 0 21000 29700"
 xmlns:xlink="http://www.w3.org/1999/xlink"
 xmlns:xodm="http://www.corel.com/coreldraw/odm/2003">
 <defs>
  <style type="text/css">
   <![CDATA[
    .str0 {stroke:#2B71B7;stroke-width:9.25;stroke-miterlimit:22.9256}
    .str1 {stroke:#2E3371;stroke-width:9.25;stroke-miterlimit:22.9256}
    .fil2 {fill:#41BAEC}
    .fil0 {fill:#2B71B7}
    .fil1 {fill:#2E3371}
    .fil3 {fill:#41BAEC;fill-rule:nonzero}
   ]]>
  </style>
 </defs>
 <g id="Layer_x0020_1">
  <metadata id="CorelCorpID_0Corel-Layer"/>
  <g id="_2296491934384">
   <path class="fil0 str0" d="M720.03 1453.14c72.31,-274.38 167.52,-539.24 325.74,-719.52l128.45 296.68c-167.57,135.12 -339.88,275.44 -454.19,422.84z"/>
   <path class="fil1 str1" d="M1224.69 1086.11c47.31,149.84 69.93,345.66 58.11,605.6l317.33 81.81c-44.36,-219.9 -157,-450.02 -375.44,-687.41z"/>
   <g>
    <path class="fil2" d="M678.74 1524.25l-195.74 247.75c267.51,76.8 548.23,21.11 772.81,-48.56 -245.06,-56.66 -435.38,-116.01 -577.07,-199.19z"/>
    <path id="_1" class="fil3" d="M479.37 1769.16l195.74 -247.75 7.26 5.68 -195.74 247.75 -4.91 1.58 -2.35 -7.26zm2.35 7.26l-6.59 -1.89 4.24 -5.37 2.35 7.26zm773.04 -48.5l2.1 -8.96 0.33 8.87 -21.26 6.5 -21.57 6.4 -21.88 6.27 -22.17 6.12 -22.45 5.95 -22.72 5.77 -22.98 5.55 -23.22 5.32 -23.45 5.06 -23.66 4.79 -23.88 4.49 -24.06 4.16 -24.24 3.82 -24.42 3.46 -24.56 3.07 -24.71 2.67 -24.84 2.23 -24.95 1.78 -25.05 1.31 -25.16 0.81 -25.22 0.29 -25.3 -0.25 -25.34 -0.8 -25.38 -1.4 -25.42 -2 -25.43 -2.62 -25.42 -3.27 -25.42 -3.95 -25.4 -4.65 -25.35 -5.34 -25.31 -6.09 -25.25 -6.86 2.56 -8.84 24.99 6.78 25.05 6.03 25.11 5.3 25.14 4.59 25.18 3.91 25.2 3.25 25.19 2.6 25.2 1.98 25.16 1.38 25.14 0.8 25.1 0.25 25.02 -0.29 24.96 -0.81 24.87 -1.29 24.79 -1.78 24.66 -2.21 24.55 -2.65 24.42 -3.05 24.26 -3.44 24.1 -3.8 23.94 -4.14 23.74 -4.47 23.54 -4.75 23.33 -5.04 23.12 -5.3 22.86 -5.53 22.62 -5.73 22.37 -5.93 22.07 -6.1 21.8 -6.25 21.49 -6.36 21.18 -6.48 0.33 8.87zm2.1 -8.96l16.57 3.83 -16.24 5.04 -0.33 -8.87zm-574.49 -191.87l-7.26 -5.68 5.98 -1.12 13.36 7.69 13.64 7.55 13.94 7.43 14.23 7.3 14.51 7.18 14.81 7.06 15.1 6.95 15.4 6.84 15.69 6.72 15.99 6.62 16.28 6.53 16.59 6.43 16.89 6.34 17.19 6.25 17.49 6.17 17.79 6.08 18.1 6.01 18.41 5.94 18.71 5.87 19.02 5.8 19.33 5.74 19.64 5.68 19.94 5.62 20.26 5.58 20.57 5.53 20.9 5.5 21.19 5.44 21.53 5.43 21.84 5.38 22.15 5.36 22.48 5.33 22.8 5.32 -2.1 8.96 -22.82 -5.32 -22.52 -5.35 -22.19 -5.36 -21.88 -5.4 -21.57 -5.43 -21.25 -5.46 -20.94 -5.5 -20.63 -5.55 -20.32 -5.6 -20 -5.64 -19.7 -5.7 -19.39 -5.76 -19.08 -5.82 -18.79 -5.89 -18.47 -5.96 -18.18 -6.03 -17.87 -6.12 -17.59 -6.19 -17.27 -6.29 -16.97 -6.36 -16.69 -6.47 -16.38 -6.57 -16.09 -6.66 -15.81 -6.78 -15.5 -6.88 -15.22 -7.01 -14.93 -7.1 -14.63 -7.24 -14.35 -7.38 -14.06 -7.49 -13.78 -7.63 -13.5 -7.77 5.98 -1.12zm-7.26 -5.68l2.5 -3.16 3.48 2.04 -5.98 1.12z"/>
   </g>
  </g>
 </g>
</svg>
